<?xml version="1.0" encoding="UTF-8"?>
<svg width="300px" height="228px" viewBox="0 0 300 228" version="1.1" xmlns="http://www.w3.org/2000/svg" xmlns:xlink="http://www.w3.org/1999/xlink">
    <title>undraw_tweetstorm_49e8</title>
    <g id="页面-1" stroke="none" stroke-width="1" fill="none" fill-rule="evenodd">
        <g id="账号分配完" transform="translate(-810.000000, -360.000000)" fill-rule="nonzero">
            <g id="undraw_tweetstorm_49e8" transform="translate(810.000000, 360.000000)">
                <polygon id="路径" fill="#E0E0E0" points="248.126801 65.9069999 149.567723 42.1584906 149.567723 228 248.126801 202.189843"></polygon>
                <polygon id="路径" fill="#000000" opacity="0.1" points="248.126801 65.9069999 149.567723 42.1584906 149.567723 228 248.126801 202.189843"></polygon>
                <polygon id="路径" fill="#E0E0E0" points="51.0086455 65.9069999 149.567723 42.1584906 149.567723 228 51.0086455 202.706418"></polygon>
                <polygon id="路径" fill="#000000" opacity="0.17" points="51.0086455 65.798157 149.567723 42.1584906 149.567723 228 51.0086455 202.817407"></polygon>
                <polygon id="路径" fill="#E0E0E0" points="148.70317 43.2908369 200.900459 0 300 25.3778701 247.807388 67.109434"></polygon>
                <polygon id="路径" fill="#E0E0E0" points="0.864553314 26.7384776 51.5851672 67.109434 150.432277 43.3030748 100.234219 0.860377358"></polygon>
                <polygon id="路径" fill="#000000" opacity="0.05" points="0 25.8960717 51.8242498 67.109434 150.432277 43.2908369 99.1199863 0"></polygon>
                <polygon id="路径" fill="#E0E0E0" points="51.0086455 66.2490566 51.0086455 202.759794 149.961086 228 151.29683 92.5202334"></polygon>
                <polygon id="路径" fill="#E0E0E0" points="248.126801 202.244309 149.567723 228 149.567723 92.5202334 248.126801 66.2490566"></polygon>
                <polygon id="路径" fill="#000000" opacity="0.07" points="248.126801 202.244309 149.567723 228 149.567723 92.5202334 248.126801 66.2490566"></polygon>
                <polygon id="路径" fill="#000000" opacity="0.07" points="209.221902 157.13629 209.221902 202.188679 248.126801 191.311872 248.126801 146.264151"></polygon>
                <polygon id="路径" fill="#000000" opacity="0.1" points="49.2795389 136.714439 104.878608 150.566038 149.567723 114.65363 149.567723 92.5928199 50.3194743 67.9698113"></polygon>
                <polygon id="路径" fill="#000000" opacity="0.1" points="249.855908 136.714439 194.254242 150.566038 149.567723 114.65363 149.567723 92.5928199 248.815924 67.9698113"></polygon>
                <polygon id="路径" fill="#E0E0E0" points="50.7159482 66.2490566 0 107.848594 98.8471094 132.498113 149.567723 92.4403288"></polygon>
                <polygon id="路径" fill="#E0E0E0" points="248.647823 66.2490566 300 107.848594 201.438987 132.498113 149.567723 92.4403288"></polygon>
                <polygon id="路径" fill="#000000" opacity="0.07" points="248.647823 66.2490566 300 107.848594 201.438987 132.498113 149.567723 92.4403288"></polygon>
            </g>
        </g>
    </g>
</svg>